<?xml version="1.0" encoding="utf-8"?>
<!-- Generator: Adobe Illustrator 16.0.3, SVG Export Plug-In . SVG Version: 6.00 Build 0)  -->
<!DOCTYPE svg PUBLIC "-//W3C//DTD SVG 1.1//EN" "http://www.w3.org/Graphics/SVG/1.1/DTD/svg11.dtd">
<svg version="1.1" id="Layer_1" xmlns="http://www.w3.org/2000/svg" xmlns:xlink="http://www.w3.org/1999/xlink" x="0px" y="0px"
	 width="1293.041px" height="792px" viewBox="0 0 1293.041 792" enable-background="new 0 0 1293.041 792" xml:space="preserve">
<text transform="matrix(1 0 0 1 477.9824 393.5659)" fill="#005C85" font-family="'Georgia'" font-size="80">Lunar Hopper</text>
<text transform="matrix(1 0 0 1 477.9824 318.5786)" fill="#005C85" font-family="'Georgia'" font-size="36">University of Southampton</text>
<g>
	<path fill-rule="evenodd" clip-rule="evenodd" fill="#005C85" d="M347.266,316.51c1.219,0.895,1.63,2.094,1.669,3.599
		c0.025,0.984,0.526,1.957,0.766,2.765c-0.46,0.537-0.85,0.991-1.118,1.306c1.247-0.328,2.616-0.628,3.939-1.065
		c0.489-0.162,0.894-0.622,1.299-0.989c5.079-4.593,10.146-9.201,15.226-13.794c6.563-5.937,13.138-11.865,19.705-17.798
		c4.1-3.704,8.193-7.412,12.299-11.108c0.928-0.835,1.949-1.576,2.816-2.468c0.534-0.549,0.94-1.266,1.248-1.976
		c0.224-0.513,0.521-0.748,0.923-0.457c1.003,0.724,1.665,0.182,2.357-0.471c1.987-1.874,4.187-3.437,6.773-4.375
		c3.291-1.193,6.622-1.517,9.866,0.071c2.842,1.392,4.624,3.71,5.459,6.784c1.085,4.001,0.339,7.769-1.265,11.468
		c-1.146,2.645-2.774,4.946-4.829,6.936c-2.974,2.88-6.458,4.862-10.637,5.221c-3.733,0.321-7.001-0.786-9.385-3.879
		c-0.175-0.226-0.372-0.435-0.711-0.83c-4.948,10.662-9.848,21.22-14.812,31.917c1.219-0.001,1.388,0.734,1.574,1.523
		c0.398,1.69,0.869,3.363,1.287,5.048c0.167,0.669,0.202,1.292-0.391,1.869c-0.139,0.135,0.117,0.853,0.36,1.174
		c1.596,2.106,3.242,4.173,4.862,6.262c4.639,5.984,9.27,11.974,13.91,17.958c5.805,7.486,11.615,14.968,17.424,22.451
		c2.765,3.563,5.499,7.15,8.324,10.666c0.563,0.703,1.453,1.158,2.237,1.656c0.164,0.105,0.563-0.027,0.784-0.164
		c2.007-1.234,4.145-2.045,6.51-2.289c3.665-0.379,6.995,1.813,7.495,5.594c0.321,2.423-0.287,4.614-1.122,6.78
		c-2.246,5.832-6.603,9.318-12.521,10.957c-1.999,0.553-4.033,0.555-5.943-0.395c-2.238-1.113-3.225-3.098-3.431-5.469
		c-0.241-2.752,0.578-5.283,1.918-7.664c0.202-0.357,0.388-0.727,0.526-0.988c-1.71-2.342-4.322-3.009-6.67-4.083
		c-4.428-2.026-8.9-3.956-13.353-5.928c-6.134-2.719-12.267-5.439-18.398-8.164c-4.334-1.926-8.662-3.862-12.996-5.788
		c-4.98-2.213-9.964-4.419-14.945-6.629c-1.026-0.456-2.049-0.917-3.202-1.434c-0.16,1.383-1.21,1.358-2.109,1.421
		c-1.93,0.137-3.865,0.203-5.8,0.234c-0.471,0.008-0.944-0.234-1.653-0.425c-1.112,0.984-2.437,2.149-3.752,3.322
		c-3.605,3.22-7.211,6.438-10.812,9.665c-2.063,1.85-4.109,3.721-6.175,5.571c-3.553,3.182-7.119,6.35-10.67,9.533
		c-2.16,1.938-4.304,3.895-6.453,5.842c-0.799,0.725-1.596,1.449-2.514,2.283c1.336,0.061,2.446,0.039,3.537,0.172
		c4.434,0.537,7.621,2.965,8.233,7.586c0.33,2.492-0.409,4.877-1.604,7.063c-2.265,4.141-5.542,7.277-9.812,9.287
		c-4.023,1.895-8.217,2.99-12.658,1.641c-4.025-1.223-6.291-4.955-5.773-9.143c0.418-3.391,1.866-6.27,4.137-8.764
		c1.247-1.367,1.298-1.361,0.386-2.969c-0.432-0.76-0.436-1.26,0.406-1.732c0.411-0.232,0.736-0.705,0.977-1.139
		c1.278-2.303,2.494-4.641,3.775-6.943c3.108-5.585,6.248-11.156,9.36-16.74c4.748-8.517,9.484-17.04,14.225-25.561
		c4.176-7.506,8.355-15.011,12.512-22.528c0.239-0.432,0.244-0.987,0.428-1.458c0.252-0.649-0.113-0.715-0.502-0.704
		c-0.95-2.914-2.05-5.708-3.43-8.402c-0.536-1.047-0.787-2.236-1.193-3.352c-0.46-1.263-0.716-1.393-1.888-0.815
		c-0.721,0.356-1.18-0.119-1.635-0.434c-1.375-0.952-2.725-1.945-4.03-2.99c-0.82-0.657-1.569-1.411-2.294-2.172
		c-0.178-0.187-0.209-0.585-0.183-0.875c0.042-0.476,0.104-0.981,0.302-1.405c0.604-1.285-0.046-2.148-0.826-3.066
		c-2.168-2.555-4.269-5.166-6.443-7.716c-0.289-0.339-0.834-0.604-1.282-0.642c-4.075-0.335-5.956-4.056-3.976-7.656
		c1.12-2.035,2.832-2.829,4.949-3.021c2.975-0.269,5.076,1.756,4.957,4.808c-0.035,0.876,0.21,1.409,0.883,1.943
		c2.328,1.848,4.59,3.78,6.919,5.627c0.299,0.238,0.85,0.261,1.269,0.223c0.857-0.077,1.762-0.121,2.543-0.436
		c1.114-0.451,2.135-1.132,3.324-1.787c0.506,1.261,1.052,2.624,1.599,3.986c0.3,0.748,0.575,1.508,0.921,2.234
		c0.098,0.206,0.493,0.489,0.598,0.436c0.808-0.414,1.577-0.901,2.508-1.455c0.924,2.45,1.907,5.058,2.889,7.663
		c-0.468-0.394-0.981-0.741-1.391-1.184c-0.806-0.868-1.439-1.266-2.543-1.37c0.263-0.132,0.421-0.211,0.806-0.403
		c-0.602,0-0.943,0-1.284,0c-0.029,0.082-0.058,0.163-0.087,0.245C344.108,314.953,345.042,316.732,347.266,316.51z
		 M383.203,335.399c-1.601,1.965-3.105,3.8-4.595,5.646c-3.152,3.905-6.296,7.816-9.443,11.725
		c-2.481,3.082-4.977,6.153-7.435,9.255c-0.394,0.498-1.274,1.039-0.212,1.799c0.149,0.107,0.093,0.551,0.076,0.835
		c-0.102,1.63,0.454,2.706,1.936,3.375c5.177,2.338,10.369,4.642,15.558,6.952c5.131,2.283,10.266,4.556,15.396,6.839
		c4.451,1.982,8.896,3.977,13.347,5.96c5.099,2.27,10.199,4.536,15.3,6.803c2.831,1.256,5.655,2.528,8.506,3.739
		c0.256,0.107,0.781-0.092,0.996-0.322c0.151-0.162,0.007-0.621-0.045-0.941c-0.046-0.278-0.148-0.545-0.226-0.819
		c0.292,0.016,0.583,0.049,0.874,0.045c0.324-0.004,0.738,0.066,0.942-0.102c0.14-0.115,0.106-0.676-0.052-0.883
		c-2.943-3.828-5.916-7.634-8.881-11.446c-3.989-5.131-7.979-10.263-11.966-15.396c-2.98-3.837-5.952-7.68-8.937-11.514
		c-3.794-4.877-7.55-9.787-11.42-14.603c-1.689-2.103-2.968-4.557-5.335-6.123c-0.898-0.594-1.646-0.789-2.573-0.421
		C384.374,336.055,383.783,336.221,383.203,335.399z M341.89,341.256c-0.101,0.122-0.271,0.274-0.376,0.464
		c-2.465,4.458-4.922,8.922-7.382,13.384c-2.165,3.925-4.329,7.852-6.5,11.773c-2.858,5.163-5.727,10.32-8.585,15.483
		c-1.873,3.386-3.74,6.776-5.603,10.168c-2.529,4.61-5.03,9.234-7.591,13.826c-0.479,0.859-0.55,1.422,0.201,2.217
		c1.039,1.1,1.154,1.227,2.305,0.217c3.513-3.092,7.018-6.193,10.518-9.301c7.387-6.558,14.771-13.123,22.153-19.688
		c4.12-3.665,8.237-7.335,12.349-10.997c-0.405-0.612-0.257-1.937,0.134-2.55c0.399-0.626,0.704-1.316,1.012-1.996
		c0.144-0.318,0.085-0.803,0.307-0.995c0.7-0.608,0.463-1.279,0.246-1.941c-0.953-2.909-1.989-5.792-2.88-8.72
		c-0.545-1.793-1.499-3.23-2.904-4.445c-1.379-1.193-2.688-2.469-4.021-3.715C344.167,343.409,343.069,342.368,341.89,341.256z
		 M358.475,325.019c0.445-0.26,0.685-0.425,0.943-0.548c2.382-1.123,3.518-1.176,5.173,0.701c0.448,0.508,1.018,0.918,1.421,1.456
		c0.887,1.179,2.01,1.618,3.457,1.399c0.434-0.065,0.903,0.03,1.346,0.109c3.18,0.573,6.354,1.173,9.537,1.729
		c0.453,0.08,1.033,0.118,1.397-0.095c1.639-0.959,3.225-2.009,4.816-3.047c0.14-0.091,0.188-0.329,0.267-0.503
		c1.043-2.292,2.081-4.586,3.128-6.875c3.936-8.604,7.874-17.208,11.814-25.809c0.381-0.83,0.624-1.617,0.365-2.589
		c-0.244-0.915-0.351-1.94-0.207-2.869c0.313-2.023,0.822-4.017,1.249-6.022c0.066-0.311,0.116-0.626,0.198-1.071
		c-1.968,1.267-47.249,42.271-47.403,42.879c1.51-1.215,0.907-0.862,2.896,0.21C358.768,324.324,358.661,324.579,358.475,325.019z
		 M353.503,352.827c0.901,2.742,1.744,5.21,2.515,7.701c0.246,0.797,0.425,1.477,1.495,1.301c0.211-0.035,0.49,0.233,0.711,0.397
		c0.767,0.573,1.572,0.465,2.176-0.287c2.021-2.517,4.046-5.028,6.071-7.541c5.186-6.43,10.374-12.859,15.55-19.297
		c0.188-0.233,0.436-0.65,0.348-0.831c-0.391-0.802-0.813-1.621-1.397-2.278c-0.229-0.257-0.916-0.131-1.394-0.134
		c-1.938-0.011-3.877-0.004-5.816-0.004c-0.441,0-0.882,0-1.43,0c0.179,2.555-0.521,4.599-2.835,6.031
		c0.488,0.387,0.899,0.665,1.253,1.001c1.727,1.641,2.229,4.505,1.164,6.526c-1.191,2.264-3.566,3.332-6.135,2.804
		c-0.93-0.191-1.88-0.283-2.842-0.422C363.093,353.528,357.645,355.754,353.503,352.827z M319.427,303.786
		c2.504,2.947,4.864,5.962,7.53,8.916c0.641-1.52,0.201-3.271,1.852-3.749c-2.082-2.186-4.112-4.347-6.194-6.455
		c-0.186-0.187-0.772-0.162-1.068-0.02C320.857,302.811,320.234,303.276,319.427,303.786z M323.521,300.011
		c-0.662,1.003-0.604,1.662,0.107,2.353c1.688,1.64,3.363,3.295,5.061,4.926c0.319,0.307,0.687,0.645,1.091,0.76
		c0.29,0.083,0.766-0.086,1.005-0.309c0.366-0.342,0.271-0.704-0.208-1.002c-0.305-0.19-0.533-0.535-0.734-0.851
		c-0.235-0.369-0.342-0.833-0.618-1.159c-0.327-0.388-0.771-0.675-1.17-1.001C326.547,302.49,325.038,301.254,323.521,300.011z
		 M343.77,323.99c-0.119,0.067-0.237,0.133-0.356,0.2c0.059,0.403,0.087,0.813,0.183,1.207c0.245,1.001,0.559,1.987,0.763,2.995
		c0.074,0.37,0.031,0.856-0.156,1.171c-0.622,1.042-1.348,2.023-2.006,3.044c-0.265,0.41-0.461,0.864-0.688,1.297
		c0.052,0.029,0.104,0.058,0.157,0.087c1.936-2.377,3.872-4.753,5.811-7.134c-0.37-0.321-0.724-0.09-1.834,1.563
		c-0.237-0.346-0.505-0.596-0.602-0.9c-0.283-0.889-0.477-1.807-0.756-2.697C344.19,324.522,343.945,324.267,343.77,323.99z
		 M317.277,297.202c-0.098,0.797-0.191,1.569-0.305,2.486c0.758,0,1.362-0.009,1.967,0.002c0.72,0.014,1.022-0.323,1.078-1.047
		c0.106-1.39-0.035-1.572-1.486-1.533C318.148,297.122,317.768,297.166,317.277,297.202z M359.315,327.368
		c-0.411-0.439-0.86-0.733-1.04-1.146c-0.445-1.018-1.524-1.22-2.245-1.872c-0.16-0.145-0.692,0.119-1.053,0.196
		c0.106,0.312,0.136,0.691,0.337,0.92c0.336,0.381,0.86,0.604,1.165,1C357.19,327.393,358.072,327.666,359.315,327.368z
		 M353.098,337.601c0.063-0.098,0.124-0.197,0.187-0.295c-1.132-1.153-2.258-2.312-3.403-3.452c-0.118-0.116-0.351-0.157-0.532-0.16
		c-0.218-0.004-0.437,0.069-0.655,0.108c0.041,0.203,0.02,0.46,0.137,0.597c0.674,0.775,1.303,1.621,2.102,2.246
		C351.534,337.116,352.367,337.293,353.098,337.601z M371.086,329.198c0.522,1.446,0.675,1.567,2.054,1.579
		c1.323,0.011,2.646,0.003,3.97,0.004c0.479,0,0.959,0,1.438,0c0-0.076,0-0.152,0-0.228
		C376.071,330.103,373.594,329.653,371.086,329.198z M336.775,308.245c1.314,1.889,2.491,2.499,3.602,1.949
		c-0.563-0.955-0.842-2.334-2.635-1.432c0.203-0.353,0.283-0.491,0.479-0.832C337.629,308.059,337.233,308.145,336.775,308.245z
		 M365.026,340.432c0.055-0.073,0.109-0.146,0.165-0.218c-0.415-0.942-0.845-1.254-1.869-1.104
		C363.998,339.634,364.512,340.033,365.026,340.432z"/>
	<g>
		<path fill-rule="evenodd" clip-rule="evenodd" fill="#FFFFFF" d="M343.799,324.012c0.176,0.276,0.42,0.532,0.515,0.834
			c0.278,0.89,0.472,1.808,0.755,2.697c0.098,0.304,0.364,0.555,0.602,0.9c1.111-1.653,1.464-1.884,1.835-1.563
			c-1.938,2.381-3.875,4.757-5.812,7.134c-0.053-0.028-0.104-0.058-0.156-0.087c0.227-0.433,0.423-0.887,0.688-1.297
			c0.659-1.021,1.385-2.002,2.006-3.045c0.188-0.314,0.231-0.801,0.157-1.171c-0.204-1.008-0.518-1.993-0.763-2.994
			c-0.097-0.394-0.125-0.804-0.184-1.208C343.561,324.146,343.68,324.079,343.799,324.012z"/>
		<path fill-rule="evenodd" clip-rule="evenodd" fill="#FFFFFF" d="M359.345,327.39c-1.243,0.297-2.126,0.024-2.836-0.901
			c-0.306-0.397-0.83-0.62-1.166-1c-0.2-0.229-0.229-0.608-0.336-0.92c0.36-0.076,0.893-0.341,1.052-0.195
			c0.722,0.652,1.801,0.854,2.245,1.872C358.484,326.656,358.934,326.951,359.345,327.39z"/>
		<path fill-rule="evenodd" clip-rule="evenodd" fill="#FFFFFF" d="M353.127,337.623c-0.731-0.308-1.563-0.485-2.166-0.956
			c-0.799-0.625-1.429-1.47-2.102-2.246c-0.118-0.136-0.096-0.394-0.138-0.596c0.219-0.04,0.438-0.112,0.655-0.109
			c0.182,0.004,0.415,0.044,0.532,0.161c1.146,1.14,2.271,2.298,3.404,3.451C353.251,337.426,353.188,337.524,353.127,337.623z"/>
		<path fill-rule="evenodd" clip-rule="evenodd" fill="#FFFFFF" d="M347.294,316.532c-2.223,0.222-3.157-1.557-4.498-2.704
			c0.029-0.082,0.058-0.163,0.086-0.245c0.341,0,0.683,0,1.284,0c-0.384,0.192-0.542,0.271-0.805,0.403
			c1.103,0.105,1.737,0.502,2.542,1.371c0.41,0.443,0.923,0.79,1.391,1.184C347.296,316.544,347.294,316.532,347.294,316.532z"/>
		<path fill-rule="evenodd" clip-rule="evenodd" fill="#FFFFFF" d="M336.804,308.267c0.458-0.1,0.854-0.186,1.447-0.315
			c-0.196,0.341-0.276,0.479-0.479,0.832c1.792-0.902,2.072,0.478,2.635,1.432C339.296,310.765,338.119,310.156,336.804,308.267z"/>
		<path fill-rule="evenodd" clip-rule="evenodd" fill="#FFFFFF" d="M365.055,340.454c-0.515-0.398-1.028-0.798-1.704-1.323
			c1.024-0.149,1.455,0.163,1.87,1.104C365.165,340.308,365.109,340.381,365.055,340.454z"/>
	</g>
	<path fill-rule="evenodd" clip-rule="evenodd" fill="#DD3427" d="M357.294,342.252c40.851,39.774,62.229,96.706,62.229,96.706
		c-12.086-64.072-56.99-101.43-56.99-101.43"/>
	
		<ellipse transform="matrix(0.7427 -0.6697 0.6697 0.7427 -134.9932 328.4795)" fill-rule="evenodd" clip-rule="evenodd" fill="#DD3427" cx="359.914" cy="339.89" rx="3.527" ry="2.328"/>
</g>
</svg>
